<?xml version="1.0" encoding="UTF-8"?>
<svg id="Layer_1" data-name="Layer 1" xmlns="http://www.w3.org/2000/svg" xmlns:xlink="http://www.w3.org/1999/xlink" viewBox="0 0 400 400">
  <defs>
    <style>
      .cls-1 {
        fill: url(#linear-gradient);
        stroke-width: 0px;
      }

      .cls-2 {
        fill: url(#linear-gradient-2);
      }

      .cls-2, .cls-3, .cls-4 {
        stroke-miterlimit: 10;
        stroke-width: .5px;
      }

      .cls-2, .cls-4 {
        stroke: #2e3191;
      }

      .cls-3 {
        fill: url(#linear-gradient-3);
        stroke: #fff100;
      }

      .cls-4 {
        fill: none;
      }
    </style>
    <linearGradient id="linear-gradient" x1="45.24" y1="223.04" x2="379.78" y2="223.04" gradientUnits="userSpaceOnUse">
      <stop offset="0" stop-color="#fff23a"/>
      <stop offset=".04" stop-color="#fee52c"/>
      <stop offset=".12" stop-color="#fdd41a"/>
      <stop offset=".2" stop-color="#fdc90e"/>
      <stop offset=".28" stop-color="#fdc60b"/>
      <stop offset=".67" stop-color="#f28f3f"/>
      <stop offset=".89" stop-color="#ed693c"/>
      <stop offset="1" stop-color="#e83e39"/>
    </linearGradient>
    <linearGradient id="linear-gradient-2" x1="162.72" y1="43.46" x2="247.36" y2="43.46" gradientUnits="userSpaceOnUse">
      <stop offset="0" stop-color="#382e88"/>
      <stop offset=".04" stop-color="#324498"/>
      <stop offset=".1" stop-color="#2c5eab"/>
      <stop offset=".16" stop-color="#2771b9"/>
      <stop offset=".22" stop-color="#247dc1"/>
      <stop offset=".28" stop-color="#2481c4"/>
      <stop offset=".55" stop-color="#75c6ef"/>
      <stop offset=".86" stop-color="#d9e020"/>
      <stop offset="1" stop-color="#eae626"/>
    </linearGradient>
    <linearGradient id="linear-gradient-3" x1="198.59" y1="166.98" x2="211.49" y2="166.98" xlink:href="#linear-gradient"/>
  </defs>
  <g>
    <path class="cls-1" d="M261.53,309.59l69.86-5.78c.65-3.8,1.3-7.7,1.98-11.74,3.5-20.91,6.55-38.61,9.2-53.26l-46.83-26.17,72.15-91.89c4.74-20.51,8.72-38.12,11.9-52.67l-127.22,75.48-.36-3.57c-16.99,30.36-30.73,55.02-41.2,73.8-6.41,11.57-10.33,17.39-11.82,17.52-2.84.24-5.75-4.24-8.74-13.42l-24.13-72.09-3.42,10.18-108.16-32.27c-.07,11.42-.23,20.7-.49,27.79-.1,5.8-.26,12.37-.47,19.38l48.59,61.55-52.88,31.49c-1.04,17.37-2.09,32.38-3,41.92-.45,4.66-.85,9.08-1.25,13.37l69.32-1.86-15.73,60.65h9.52c3.46,0,5.43-2.48,5.9-7.43,1.3-13.87,2.94-34.67,4.89-62.37,1.92-27.68,3.53-48.44,4.81-62.3.26-2.83.92-4.92,1.99-6.27.86.77,1.39,1.5,1.6,2.18,4.96,13.55,12.02,35.8,20.9,67.02,7.33,27.99,13.2,49.92,17.8,65.79l16.83-20.62,10.26,17.38c11.97-24.92,24.2-50.16,36.71-75.73,23.4-47.03,36.23-71.39,37.88-72.44,1.17.2,1.38,2.53.64,6.99-2.57,15.53-6.93,38.84-13.04,69.93-6.08,31.05-10.37,54.31-12.92,69.81-.88,5.37.46,8.06,4.06,8.06h15.19l-.34-68.41Z"/>
    <path class="cls-4" d="M261.53,309.59l69.86-5.78c.65-3.8,1.3-7.7,1.98-11.74,3.5-20.91,6.55-38.61,9.2-53.26l-46.83-26.17,72.15-91.89c4.74-20.51,8.72-38.12,11.9-52.67l-127.22,75.48-.36-3.57c-16.99,30.36-30.73,55.02-41.2,73.8-6.41,11.57-10.33,17.39-11.82,17.52-2.84.24-5.75-4.24-8.74-13.42l-24.13-72.09-3.42,10.18-108.16-32.27c-.07,11.42-.23,20.7-.49,27.79-.1,5.8-.26,12.37-.47,19.38l48.59,61.55-52.88,31.49c-1.04,17.37-2.09,32.38-3,41.92-.45,4.66-.85,9.08-1.25,13.37l69.32-1.86-15.73,60.65h9.52c3.46,0,5.43-2.48,5.9-7.43,1.3-13.87,2.94-34.67,4.89-62.37,1.92-27.68,3.53-48.44,4.81-62.3.26-2.83.92-4.92,1.99-6.27.86.77,1.39,1.5,1.6,2.18,4.96,13.55,12.02,35.8,20.9,67.02,7.33,27.99,13.2,49.92,17.8,65.79l16.83-20.62,10.26,17.38c11.97-24.92,24.2-50.16,36.71-75.73,23.4-47.03,36.23-71.39,37.88-72.44,1.17.2,1.38,2.53.64,6.99-2.57,15.53-6.93,38.84-13.04,69.93-6.08,31.05-10.37,54.31-12.92,69.81-.88,5.37.46,8.06,4.06,8.06h15.19l-.34-68.41Z"/>
  </g>
  <path class="cls-2" d="M167.25,81.91s-13.2-25.33,5.46-49.47c0,0,24.66,0,48-27.44,0,0-15.08,36.3-7.39,38.46,0,0,4.39-3.25,19.76,0,15.37,3.25,14.27,30.69,14.27,30.69,0,0-49.33-45.93-80.09,7.76Z"/>
  <polygon class="cls-3" points="211.1 171.47 206.32 169.67 203.14 173.66 203.37 168.56 198.59 166.75 203.52 165.4 203.76 160.3 206.56 164.57 211.49 163.22 208.3 167.2 211.1 171.47"/>
</svg>